<svg width="30" height="28" viewBox="0 0 30 28" fill="none" xmlns="http://www.w3.org/2000/svg">
<path d="M23.209 6.04638L27.858 10.5194C29.495 12.0944 29.495 14.6774 27.858 16.3154C27.596 16.5674 27.399 16.8194 27.138 17.0084C26.286 17.7654 24.977 17.7654 24.191 16.9454C23.9058 16.6773 23.7045 16.3322 23.6115 15.952C23.5185 15.5718 23.5378 15.1728 23.667 14.8034C23.798 14.4884 23.798 14.5514 23.994 14.0474C24.126 13.7501 24.1592 13.4183 24.0886 13.1008C24.018 12.7833 23.8475 12.4968 23.602 12.2834L20.132 8.94337L16.661 5.60538C16.137 5.10138 15.417 5.03838 14.827 5.22738C14.304 5.41638 14.369 5.41638 14.042 5.54238C13.322 5.79437 12.405 5.66838 11.815 5.03838C11.6238 4.85684 11.4704 4.6393 11.3636 4.39826C11.2568 4.15723 11.1987 3.89746 11.1927 3.63389C11.1867 3.37033 11.2328 3.10817 11.3284 2.86249C11.4241 2.61682 11.5673 2.39248 11.75 2.20237L12.47 1.50938C14.107 -0.065625 16.792 -0.065625 18.494 1.50938L23.209 6.04638ZM9.654 19.1504L6.184 15.8124C5.726 15.3714 5.594 14.6784 5.791 14.1114C5.857 13.9214 6.053 13.4814 6.118 13.3544C6.446 12.5984 6.249 11.7794 5.66 11.1494C4.874 10.3934 3.565 10.3304 2.714 11.0864L1.994 11.7794C0.356003 13.3544 0.356003 15.9384 1.994 17.5764L6.642 22.0494L11.292 26.5224C12.928 28.0974 15.612 28.0974 17.315 26.5224C17.577 26.2704 17.839 26.0824 18.035 25.8294C18.821 25.0104 18.821 23.7504 17.97 22.9944C17.669 22.7113 17.2937 22.5196 16.8879 22.4416C16.4821 22.3637 16.0624 22.4028 15.678 22.5544C15.482 22.6164 15.089 22.8054 14.893 22.8684C14.303 23.0584 13.583 22.9314 13.125 22.4904L9.654 19.1504ZM22.489 24.8204C23.471 25.7664 25.108 25.7664 26.09 24.8204C26.3228 24.5959 26.5079 24.3269 26.6343 24.0293C26.7608 23.7317 26.826 23.4117 26.826 23.0884C26.826 22.765 26.7608 22.445 26.6343 22.1474C26.5079 21.8499 26.3228 21.5808 26.09 21.3564L20.59 16.0634C19.608 15.1184 17.97 15.1184 16.989 16.0634C16.7559 16.2878 16.5705 16.557 16.4439 16.8548C16.3173 17.1525 16.252 17.4728 16.252 17.7964C16.252 18.12 16.3173 18.4402 16.4439 18.738C16.5705 19.0357 16.7559 19.3049 16.989 19.5294C19.804 22.2384 19.673 22.0484 22.489 24.8204ZM9.262 12.0304C10.244 12.9764 11.882 12.9764 12.863 12.0304C13.0958 11.8059 13.2809 11.5369 13.4073 11.2393C13.5338 10.9417 13.599 10.6217 13.599 10.2984C13.599 9.97504 13.5338 9.65502 13.4073 9.35744C13.2809 9.05985 13.0958 8.79081 12.863 8.56637L7.363 3.27338C6.381 2.32838 4.744 2.32838 3.762 3.27338C3.52909 3.49782 3.34382 3.76693 3.21728 4.0646C3.09074 4.36228 3.02552 4.68242 3.02552 5.00588C3.02552 5.32933 3.09074 5.64947 3.21728 5.94715C3.34382 6.24482 3.52909 6.51393 3.762 6.73838C6.578 9.44838 6.382 9.32237 9.262 12.0314V12.0304Z" fill="#48D6D5"/>
</svg>
