<svg width="35" height="36" viewBox="0 0 35 36" fill="none" xmlns="http://www.w3.org/2000/svg">
<path d="M6.80083 4.05287C6.80083 3.09358 7.56205 2.31593 8.50106 2.31593C9.44007 2.31593 10.2013 3.09358 10.2013 4.05287V20.2644C10.2013 21.2236 9.44007 22.0013 8.50106 22.0013C7.56205 22.0013 6.80083 21.2236 6.80083 20.2644V4.05287ZM20.4027 6.36879C20.4027 5.40951 21.1639 4.63185 22.1029 4.63185C23.0419 4.63185 23.8031 5.40951 23.8031 6.36879V22.5803C23.8031 23.5395 23.0419 24.3172 22.1029 24.3172C21.1639 24.3172 20.4027 23.5395 20.4027 22.5803V6.36879ZM13.6017 1.73694C13.6017 0.777657 14.363 0 15.302 0C16.241 0 17.0022 0.777657 17.0022 1.73694V17.9484C17.0022 18.9077 16.241 19.6854 15.302 19.6854C14.363 19.6854 13.6017 18.9077 13.6017 17.9484V1.73694ZM31.5667 24.4892C32.4127 24.073 33.4288 24.4363 33.8361 25.3007C34.2435 26.165 33.8879 27.203 33.0419 27.6192L18.6898 34.6786C12.2035 37.8691 4.41345 35.0837 1.29038 28.4573C0.44103 26.6551 0 24.6806 0 22.6803V9.84265C0 8.88337 0.761139 8.10575 1.70023 8.10575C2.63923 8.10575 3.40038 8.88337 3.40038 9.84265V22.6803C3.40038 24.1588 3.72638 25.6182 4.35424 26.9503C6.66254 31.848 12.4204 33.9068 17.2147 31.5486L31.5667 24.4892Z" fill="black"/>
</svg>
